<?xml version="1.0" standalone="no"?>
<!DOCTYPE svg PUBLIC "-//W3C//DTD SVG 20010904//EN"
 "http://www.w3.org/TR/2001/REC-SVG-20010904/DTD/svg10.dtd">
<svg version="1.0" xmlns="http://www.w3.org/2000/svg"
 width="64.000000pt" height="64.000000pt" viewBox="0 0 64.000000 64.000000"
 preserveAspectRatio="xMidYMid meet">

<g transform="translate(0.000000,64.000000) scale(0.100000,-0.100000)"
fill="#000000" stroke="none">
<path d="M123 610 c-83 -42 -90 -51 -65 -92 12 -19 32 -44 46 -57 l25 -23 -29
-37 c-76 -96 -59 -233 39 -306 40 -29 80 -36 44 -7 -32 25 -45 85 -30 140 10
38 10 46 -2 50 -23 8 -61 49 -61 66 0 9 12 29 28 45 26 28 28 29 60 15 28 -12
31 -17 22 -33 -29 -55 7 -105 72 -99 l33 3 3 -62 c3 -71 17 -88 55 -74 38 15
61 55 53 93 -4 22 -1 37 10 50 26 27 34 22 34 -22 0 -100 -94 -190 -197 -190
-13 0 -23 -4 -23 -10 0 -13 44 -13 91 1 89 27 149 109 149 204 0 68 -17 110
-60 154 -27 26 -30 35 -19 41 19 12 63 -31 91 -89 15 -31 22 -64 22 -106 0
-178 -188 -297 -349 -221 -90 43 -144 126 -145 224 0 37 -3 51 -11 46 -8 -4
-10 -27 -6 -65 21 -234 304 -332 460 -160 62 69 82 148 62 253 -6 31 -4 37 15
43 38 12 89 65 96 99 5 32 -7 97 -24 124 -25 38 -136 -44 -149 -109 l-8 -41
-23 24 c-13 12 -34 37 -47 53 -28 36 -44 28 -19 -10 l17 -26 -29 6 c-16 4 -33
8 -39 10 -5 1 -25 23 -43 49 -29 40 -31 46 -15 46 11 0 28 -7 39 -15 22 -16
44 -19 44 -6 0 16 -84 51 -122 51 -19 0 -62 -14 -95 -30z m107 -27 c45 -67 44
-64 13 -57 -25 5 -83 58 -83 75 0 6 14 12 40 18 3 0 16 -16 30 -36z m-72 -22
c15 -22 15 -23 -24 -15 -50 9 -53 12 -29 30 24 17 34 15 53 -15z m407 2 c-4
-10 -10 -26 -12 -35 -7 -24 -20 -23 -28 2 -7 24 10 50 32 50 11 0 13 -5 8 -17z
m45 -27 c0 -15 -7 -26 -20 -29 -23 -6 -24 -6 -8 28 14 32 28 32 28 1z m-465
-15 l29 -6 -27 -18 c-30 -19 -41 -17 -57 14 -12 21 -3 23 55 10z m373 -29 c7
-20 6 -35 -3 -53 -14 -25 -13 -27 -30 27 -7 21 5 65 15 59 4 -3 12 -18 18 -33z
m-268 9 c24 -7 23 -8 -24 -40 -37 -26 -53 -32 -65 -24 -24 15 -20 31 14 53 32
21 36 22 75 11z m108 -21 c26 0 10 -17 -36 -39 -27 -13 -61 -21 -78 -19 l-29
3 45 33 c29 21 52 31 65 28 11 -3 26 -6 33 -6z m252 -9 c0 -11 -58 -61 -70
-61 -18 0 7 45 31 57 29 15 39 16 39 4z m-190 -83 c16 -22 30 -44 30 -49 0 -4
-13 -21 -30 -37 -24 -25 -30 -38 -28 -71 1 -44 -15 -71 -43 -71 -16 0 -19 8
-19 53 0 70 -16 92 -60 84 -19 -4 -38 -2 -46 4 -18 15 -18 53 0 68 19 16 126
59 148 60 10 1 31 -18 48 -41z m-310 -108 c30 -28 31 -32 20 -59 -7 -17 -9
-44 -5 -63 l6 -33 -19 24 c-11 14 -25 41 -31 62 -11 35 -15 99 -7 99 2 0 18
-14 36 -30z"/>
</g>
</svg>
